# xmcd
#
# Track frame offsets:
#	150
#	16412
#	31490
#	43382
#	57645
#	73660
#	86775
#	100762
#	116427
#	129965
#	149020
#	165975
#	182950
#	200775
#	214967
#	228897
#	244892
#	265402
#	280487
#	296685
#	312225
#
# Disc length: 4364
#
# Revision: 1
# Processed by: cddbd v1.5.1PL0 Copyright (c) Steve Scherf et al.
# Submitted via: EasyCDDAExtractor 7.5.0.1
# Normalized: r0:DSETVAR1
#
DISCID=4f110a15
DTITLE=Various Artist - R&B - 1974
DYEAR=1996
DGENRE=Blues
TTITLE0=MFSB - The Sound of Philadelphia
TTITLE1=George McCrae - Rock Your Baby
TTITLE2=Bobby Womack - Lookin' for a Love
TTITLE3=Al Green - Livin' for You
TTITLE4=Rufus - Tell Me Something Good
TTITLE5=Ohio Players - Skin Tight
TTITLE6=Kool and the Gang - Jungle Boogie
TTITLE7=B.T. Express - Do It ('Til You're Satisfied)
TTITLE8=The Three Degrees - When Will I See You Again
TTITLE9=Blue Magic - Slideshow
TTITLE10=Gladys Knight and the Pips - Best Thing That Ever Happened to Me
TTITLE11=Barry White - Can't Get Enough of Your Love Babe
TTITLE12=Dionne Warwick and the Spinners - Then Came You
TTITLE13=The Hues Corporation - Rock the Boat
TTITLE14=Earth, Wind and Fire - Mighty, Mighty
TTITLE15=Parliament - Up for the Down Stroke
TTITLE16=James Brown - Papa Don't Take No Mess
TTITLE17=The Spinners - Mighty Love Pt. 1
TTITLE18=Love Unlimited Orchestra - Love's Theme
TTITLE19=Aretha Franklin - Until You Come Back to Me
TTITLE20=William De Vaughn - Be Thankful for What You Got
EXTD=
EXTT0=
EXTT1=
EXTT2=
EXTT3=
EXTT4=
EXTT5=
EXTT6=
EXTT7=
EXTT8=
EXTT9=
EXTT10=
EXTT11=
EXTT12=
EXTT13=
EXTT14=
EXTT15=
EXTT16=
EXTT17=
EXTT18=
EXTT19=
EXTT20=
PLAYORDER=
